<svg width="104" height="52" viewBox="0 0 50 25" fill="none" xmlns="http://www.w3.org/2000/svg">
<path d="M44.8496 7.59126C39.4118 7.44083 38.1359 5.99679 37.8625 5.1444L37.8574 5.09426C37.8523 5.07922 37.8422 5.05415 37.8372 5.03911C37.827 4.98396 37.8118 4.91376 37.8017 4.84858C37.7967 4.78841 37.7916 4.72824 37.7967 4.68311C38.2169 4.26695 38.4144 3.69535 38.3131 3.11873C38.1663 2.28139 37.4422 1.6446 36.5866 1.60951C36.0752 1.58444 35.5486 1.77998 35.1891 2.12094C35.1334 2.17609 35.0777 2.23125 35.0322 2.29142L35.0524 2.17609C35.0575 2.13097 35.0625 2.08584 35.0625 2.04071C35.0625 0.917569 34.141 0 33.0018 0C31.9386 0 31.0019 0.952668 30.9462 2.06077C30.3741 2.15102 29.9082 2.34657 29.3715 2.60229C27.8931 1.80505 25.9083 1.13819 23.6248 0.671881C21.5186 0.240674 19.2553 0.00501404 17.2503 0.00501404C13.9188 0.00501404 10.4707 0.802247 6.71387 2.44184C5.87339 2.80786 4.91139 3.26915 4.06077 3.92098C4.05065 3.92599 4.04052 3.93101 4.0304 3.93602L2.87599 2.68753C2.86587 2.6775 2.8608 2.67248 2.85068 2.66246C2.54182 2.3566 2.13171 2.18111 1.69628 2.17609C1.25072 2.16607 0.825411 2.33153 0.506432 2.63739C0.187452 2.94324 0.00517833 3.35941 0.00011516 3.80064C-0.00494801 4.23686 0.157073 4.65303 0.460863 4.96891L1.87855 6.54834C1.51907 7.01966 1.16464 7.56619 1.02287 7.84196C1.01275 7.857 1.00769 7.87706 0.997559 7.8921C0.491242 9.09547 0.238084 10.369 0.238084 11.6827C0.238084 13.558 0.795032 15.5185 1.81273 17.2132C2.93169 19.0784 4.05571 20.2216 5.32657 20.7882L5.35694 23.8367C5.36201 24.2078 5.60504 24.5337 5.95946 24.644C6.49616 24.8145 7.70119 25 9.47836 25C11.2505 25 12.4606 24.8195 12.9973 24.644C13.3567 24.5287 13.5998 24.1978 13.5998 23.8267L13.5947 21.6005C13.5947 21.5353 13.62 21.4751 13.6707 21.435C13.7213 21.3949 13.7821 21.3799 13.8479 21.3899C14.6073 21.5403 16.0149 21.786 16.8655 21.786C19.2351 21.786 23.2249 21.4099 25.3818 20.8484C25.4881 20.8183 25.5995 20.8434 25.6856 20.9085C25.7767 20.9787 25.8223 21.074 25.8223 21.1893V23.8267C25.8223 24.1978 26.0653 24.5287 26.4197 24.644C26.9514 24.8145 28.1463 24.995 29.8981 24.995C31.655 24.995 32.8449 24.8145 33.3765 24.644C33.736 24.5287 33.974 24.1978 33.974 23.8267V20.4573C33.974 20.3169 34.06 20.1865 34.1917 20.1264C34.6524 19.9158 35.0372 19.5698 35.2954 19.1436C36.546 19.3592 38.0042 19.6701 39.4675 20.1264C51.209 23.7515 53.3254 7.82692 44.8496 7.59126Z" fill="#FF0C0C"/>
</svg>
